<svg class="logo_menu-svg" viewBox="0 0 183.22 31.49" xmlns="http://www.w3.org/2000/svg"><polygon class="cls-1" points="19.16 22.88 17.34 22.88 17.34 16.92 10.79 16.92 10.79 22.88 8.96 22.88 8.96 9.39 10.79 9.39 10.79 15.48 17.34 15.48 17.34 9.39 19.16 9.39 19.16 22.88"></polygon><polygon class="cls-1" points="83.72 16.92 77.57 16.92 77.57 22.88 75.75 22.88 75.75 9.39 84.67 9.39 84.67 10.84 77.57 10.84 77.57 15.48 83.72 15.48 83.72 16.92"></polygon><path class="cls-1" d="M172.43,20.2a1.24,1.24,0,0,0-.46-1,4.39,4.39,0,0,0-1.74-.67,7.22,7.22,0,0,1-2.74-1.08,2.17,2.17,0,0,1-.92-1.85,2.63,2.63,0,0,1,1-2.08,4.72,4.72,0,0,1,5.49,0,2.65,2.65,0,0,1,1,2.19l0,.05h-1.74a1.59,1.59,0,0,0-.55-1.18,2,2,0,0,0-1.46-.52,2.11,2.11,0,0,0-1.44.42,1.33,1.33,0,0,0-.47,1,1.14,1.14,0,0,0,.42.93,4.32,4.32,0,0,0,1.69.61,7.32,7.32,0,0,1,2.82,1.11,2.23,2.23,0,0,1,.93,1.87,2.59,2.59,0,0,1-1.08,2.16,4.52,4.52,0,0,1-2.82.82,4.41,4.41,0,0,1-3-1,2.78,2.78,0,0,1-1-2.27l0-.06H168a1.67,1.67,0,0,0,.72,1.41,2.8,2.8,0,0,0,1.58.45,2.58,2.58,0,0,0,1.52-.39,1.2,1.2,0,0,0,.55-1M162.56,18a5.53,5.53,0,0,0-.64-2.81A2.09,2.09,0,0,0,160,14.15a2.38,2.38,0,0,0-1.42.41,2.91,2.91,0,0,0-.92,1.11V20a3,3,0,0,0,.92,1.16,2.37,2.37,0,0,0,1.44.42,2.17,2.17,0,0,0,1.92-.92,4.22,4.22,0,0,0,.63-2.42Zm1.82.2a5.49,5.49,0,0,1-1,3.49,3.44,3.44,0,0,1-2.86,1.33,3.65,3.65,0,0,1-1.72-.38,3.17,3.17,0,0,1-1.21-1.13l-.22,1.32h-1.49V8.43h1.82V14a3.19,3.19,0,0,1,1.17-1,3.6,3.6,0,0,1,1.63-.35,3.33,3.33,0,0,1,2.89,1.48,6.66,6.66,0,0,1,1,3.9Zm-15.85,3.28a3.26,3.26,0,0,0,1.79-.51,2.42,2.42,0,0,0,1-1.16V18.23h-2a2.66,2.66,0,0,0-1.76.55,1.66,1.66,0,0,0-.66,1.31,1.37,1.37,0,0,0,.42,1.05A1.73,1.73,0,0,0,148.53,21.53Zm3,1.35c-.06-.3-.11-.57-.14-.8a5.79,5.79,0,0,1-.06-.7A4.23,4.23,0,0,1,150,22.58a3.41,3.41,0,0,1-1.76.48,3.27,3.27,0,0,1-2.38-.8,2.94,2.94,0,0,1-.82-2.21,2.59,2.59,0,0,1,1.16-2.25,5.43,5.43,0,0,1,3.15-.81h2V16a1.83,1.83,0,0,0-.54-1.38,2.12,2.12,0,0,0-1.52-.51,2.2,2.2,0,0,0-1.43.45,1.34,1.34,0,0,0-.55,1.07h-1.74l0-.05a2.42,2.42,0,0,1,1-2,4.25,4.25,0,0,1,2.81-.9,4.13,4.13,0,0,1,2.74.87,3.06,3.06,0,0,1,1,2.49v4.82a9.93,9.93,0,0,0,.05,1,5.49,5.49,0,0,0,.21,1Zm-14.23-1.44h6.38v1.44h-8.2V9.39h1.82Z"></path><path class="cls-1" d="M0,0H183.22V31.49H0ZM1.81,30H181.4V1.44H1.81Z"></path></svg>